<svg xmlns="http://www.w3.org/2000/svg" width="16" height="16" viewBox="0 0 100 100">
  <!-- EnsÅ zen circle - brushstroke with variable width following circular path -->
  
  <!-- Outer edge of brushstroke (radius ~42) -->
  <!-- Inner edge of brushstroke (radius ~30) -->
  <!-- Gap at top-right, brushstroke tapers at ends -->
  
  <path 
    d="M 85 58
       C 86 72, 78 84, 64 90
       C 50 96, 34 94, 22 84
       C 10 74, 6 58, 8 44
       C 10 30, 18 18, 32 11
       C 46 4, 62 6, 74 14
       Q 78 17, 80 22
       L 72 28
       Q 70 25, 66 22
       C 56 16, 44 15, 34 20
       C 24 26, 18 36, 17 48
       C 16 60, 20 72, 30 80
       C 40 88, 54 90, 66 84
       C 76 79, 82 70, 82 60
       Q 82 58, 83 57
       Z"
    fill="#c0392b"
  />
  
  <!-- Tapered start of stroke -->
  <ellipse cx="84" cy="57" rx="4" ry="2.5" fill="#c0392b" transform="rotate(-10 84 57)"/>
  
  <!-- Tapered end with brush lift -->
  <path 
    d="M 80 22
       Q 83 18, 82 15
       Q 80 14, 78 16
       Q 76 20, 80 22"
    fill="#a33025"
  />
</svg>
